<svg width="17" height="16" viewBox="0 0 17 16" fill="none" xmlns="http://www.w3.org/2000/svg">
    <path
        d="M4.20215 9C4.75443 9 5.20215 8.55228 5.20215 8C5.20215 7.44772 4.75443 7 4.20215 7C3.64986 7 3.20215 7.44772 3.20215 8C3.20215 8.55228 3.64986 9 4.20215 9Z"
        fill="#8B8F9E" />
    <path
        d="M8.20215 9C8.75443 9 9.20215 8.55228 9.20215 8C9.20215 7.44772 8.75443 7 8.20215 7C7.64986 7 7.20215 7.44772 7.20215 8C7.20215 8.55228 7.64986 9 8.20215 9Z"
        fill="#8B8F9E" />
    <path
        d="M12.2021 9C12.7544 9 13.2021 8.55228 13.2021 8C13.2021 7.44772 12.7544 7 12.2021 7C11.6499 7 11.2021 7.44772 11.2021 8C11.2021 8.55228 11.6499 9 12.2021 9Z"
        fill="#8B8F9E" />
</svg>