<svg width="6" height="5" viewBox="0 0 6 5" opacity="0.3" fill="#595D6C" xmlns="http://www.w3.org/2000/svg">
    <path
        d="M3.26871 4.64489L5.33066 1.08257C5.36365 1.02557 5.38105 0.960883 5.3811 0.895022C5.38116 0.82916 5.36387 0.764446 5.33097 0.70739C5.29807 0.650334 5.25072 0.60295 5.19369 0.570003C5.13666 0.537056 5.07196 0.519711 5.0061 0.519711L0.882216 0.519711C0.816354 0.51971 0.751655 0.537056 0.694626 0.570002C0.637597 0.602949 0.590251 0.650333 0.557352 0.70739C0.524452 0.764446 0.50716 0.82916 0.507215 0.895022C0.507269 0.960884 0.524669 1.02557 0.557663 1.08257L2.61961 4.64489C2.65255 4.7018 2.69987 4.74905 2.75684 4.78189C2.8138 4.81474 2.8784 4.83203 2.94416 4.83203C3.00992 4.83203 3.07452 4.81474 3.13148 4.78189C3.18845 4.74905 3.23577 4.7018 3.26871 4.64489Z" />
</svg>