<svg width="21" height="20" viewBox="0 0 21 20" fill="none" xmlns="http://www.w3.org/2000/svg">
<path d="M10.9443 6.25V10.625" stroke="#222A34" stroke-width="2" stroke-linecap="round" stroke-linejoin="round"/>
<path d="M13.7921 2.5H8.09662C8.01454 2.5 7.93327 2.51617 7.85744 2.54758C7.78161 2.57898 7.71271 2.62502 7.65468 2.68306L3.62739 6.71034C3.56936 6.76838 3.52332 6.83728 3.49191 6.9131C3.4605 6.98893 3.44434 7.07021 3.44434 7.15228V12.8477C3.44434 12.9298 3.4605 13.0111 3.49191 13.0869C3.52332 13.1627 3.56936 13.2316 3.62739 13.2897L7.65468 17.3169C7.71271 17.375 7.78161 17.421 7.85744 17.4524C7.93327 17.4838 8.01454 17.5 8.09662 17.5H13.7921C13.8741 17.5 13.9554 17.4838 14.0312 17.4524C14.1071 17.421 14.176 17.375 14.234 17.3169L18.2613 13.2897C18.3193 13.2316 18.3654 13.1627 18.3968 13.0869C18.4282 13.0111 18.4443 12.9298 18.4443 12.8477V7.15228C18.4443 7.07021 18.4282 6.98893 18.3968 6.9131C18.3654 6.83728 18.3193 6.76838 18.2613 6.71034L14.234 2.68306C14.176 2.62502 14.1071 2.57898 14.0312 2.54758C13.9554 2.51617 13.8741 2.5 13.7921 2.5Z" stroke="#222A34" stroke-width="2" stroke-miterlimit="10"/>
<path d="M10.9443 14.375C11.4621 14.375 11.8818 13.9553 11.8818 13.4375C11.8818 12.9197 11.4621 12.5 10.9443 12.5C10.4266 12.5 10.0068 12.9197 10.0068 13.4375C10.0068 13.9553 10.4266 14.375 10.9443 14.375Z" fill="#222A34"/>
</svg>
